HIERARCHY
ROOT HipCenter
{
    OFFSET 0.0 0.0 -0.0
    CHANNELS 6 Xposition Yposition Zposition Zrotation Xrotation Yrotation
    JOINT Spine
    {
        OFFSET 0.0 11.543972969055176 0.0
        CHANNELS 3 Zrotation Xrotation Yrotation
        JOINT ShoulderCenter
        {
            OFFSET 0.0 33.003990173339844 0.0
            CHANNELS 3 Zrotation Xrotation Yrotation
            JOINT LeftShoulder
            {
                OFFSET 18.716466903686523 0.0 0.0
                CHANNELS 3 Zrotation Xrotation Yrotation
                JOINT LeftElbow
                {
                    OFFSET 28.854522705078125 0.0 0.0
                    CHANNELS 3 Zrotation Xrotation Yrotation
                    JOINT LeftWrist
                    {
                        OFFSET 29.326793670654297 0.0 0.0
                        CHANNELS 3 Zrotation Xrotation Yrotation
                        JOINT LeftHand
                        {
                            OFFSET 3.779101848602295 0.0 0.0
                            CHANNELS 3 Zrotation Xrotation Yrotation
                            End Site
                            {
                                OFFSET 1.5116407871246338 0.0 0.0
                            }
                        }
                    }
                }
            }
            JOINT RightShoulder
            {
                OFFSET -18.716466903686523 0.0 0.0
                CHANNELS 3 Zrotation Xrotation Yrotation
                JOINT RightElbow
                {
                    OFFSET -28.854522705078125 0.0 0.0
                    CHANNELS 3 Zrotation Xrotation Yrotation
                    JOINT RightWrist
                    {
                        OFFSET -29.326793670654297 0.0 0.0
                        CHANNELS 3 Zrotation Xrotation Yrotation
                        JOINT RightHand
                        {
                            OFFSET -3.779101848602295 0.0 0.0
                            CHANNELS 3 Zrotation Xrotation Yrotation
                            End Site
                            {
                                OFFSET -1.5116407871246338 0.0 0.0
                            }
                        }
                    }
                }
            }
            End Site
            {
                OFFSET 0.0 13.201595306396484 0.0
            }
        }
    }
    JOINT LeftHip
    {
        OFFSET 13.485027313232422 0.0 0.0
        CHANNELS 3 Zrotation Xrotation Yrotation
        JOINT LeftKnee
        {
            OFFSET 0.0 -41.1812744140625 0.0
            CHANNELS 3 Zrotation Xrotation Yrotation
            JOINT LeftAnkle
            {
                OFFSET 0.0 -42.33606719970703 0.0
                CHANNELS 3 Zrotation Xrotation Yrotation
                JOINT LeftFoot
                {
                    OFFSET 0.0 -13.492859840393066 0.0
                    CHANNELS 3 Zrotation Xrotation Yrotation
                    End Site
                    {
                        OFFSET 0.0 0.0 5.397144317626953
                    }
                }
            }
        }
    }
    JOINT RightHip
    {
        OFFSET -13.485027313232422 0.0 0.0
        CHANNELS 3 Zrotation Xrotation Yrotation
        JOINT RightKnee
        {
            OFFSET 0.0 -41.1812744140625 0.0
            CHANNELS 3 Zrotation Xrotation Yrotation
            JOINT RightAnkle
            {
                OFFSET 0.0 -42.33606719970703 0.0
                CHANNELS 3 Zrotation Xrotation Yrotation
                JOINT RightFoot
                {
                    OFFSET 0.0 -13.492859840393066 0.0
                    CHANNELS 3 Zrotation Xrotation Yrotation
                    End Site
                    {
                        OFFSET 0.0 0.0 5.397144317626953
                    }
                }
            }
        }
    }
}
MOTION
Frames: 9
Frame Time: 0.03333333333333333
-125.39999389648438 38.900001525878906 -57.5 -45.71616550890091 -11.490372772713746 89.6467328028833 5.297088074629475 8.063876824548421 -0.07355207612369859 -4.345159670809197e-07 -1.4834117257142727e-06 -1.134674511799288 132.33950159579877 -2.9034893058835785 -122.70481443817184 2.0294232260406857e-06 6.768373022584373e-06 55.4489169314397 -8.849546855745779e-07 -2.3076811755003037 39.889312633027934 3.1805546814635176e-15 6.361109362927035e-15 -1.7655625192200634e-31 -116.38843699019439 15.922284120016984 105.99984857625194 -4.6034028540084155e-06 -7.372878788448358e-07 -82.1531712001801 179.99999906735587 -46.29870879764595 155.37472833708566 -1.2424041724466865e-16 1.5902773407317588e-15 -1.9878466759146985e-16 18.083482585729758 -57.32895666392253 26.85544729714425 9.14119106419704 28.597385422373584 -53.79325673923657 44.50646441076987 -49.837524266935425 103.58412738798911 2.3854160110976376e-15 -1.5902773407317584e-15 -7.951386703658792e-16 82.5005402509882 -80.64889615560936 38.72622325119086 -57.894088950053586 53.88087478445934 91.74868866242855 -118.62060330477766 -52.54657562702885 -159.45439449169638 0.0 0.0 3.1805546814635168e-15
-124.89999389648438 40.70000076293945 -57.30000305175781 -47.17471051138682 -13.091493694640581 89.43197629460677 8.104085270385248 7.543592419059327 -0.37225240629062867 -2.1121023119532695e-07 1.6370361414168218e-06 -3.124855737248707 128.77976450890122 -1.2496227041049204 -124.33393335572632 -2.8023749357362883e-06 6.1043620362550114e-06 54.41869531951469 -1.4454922299771646e-06 0.4970509169187742 41.74458940819254 6.361109362927035e-15 6.361109362927035e-15 3.1805546814635168e-15 -116.2978264682475 12.15555462620823 105.56046955190533 1.9396275106607963e-06 2.261633677826345e-06 -82.91069233912842 -179.99999941363507 -46.46310272566418 155.47366318031675 1.4908850069360235e-16 2.586273221513765e-34 1.987846675914698e-16 27.024944705220587 -63.424232164360916 45.95571710530279 20.257974560320577 37.62871330596063 -77.31484162415833 62.508887878222986 -45.335319785951015 122.28029892628567 4.4139062980501586e-32 -3.1805546814635176e-15 1.5902773407317588e-15 74.94141588671204 -79.86788033630283 32.585795322810206 -47.64515222202011 53.782397293291375 81.00535849565576 -118.86160818290948 -55.86406363531021 -158.66857601489968 -8.827812596100317e-32 3.1805546814635168e-15 3.1805546814635168e-15
-124.69999694824219 42.599998474121094 -56.69999694824219 -47.89856189014306 -14.052429069195 89.58941179024254 8.899559801432662 7.815085925493443 -0.40010197781600476 -4.4305248435200365e-06 -1.6914734426147844e-06 -4.169072752301541 127.85500657152232 -0.17503946846254317 -124.32363602371383 9.62652885499787e-07 3.8503576144260264e-06 52.87389431887571 -2.1648687325963865e-06 2.916798564547717 43.79954342828426 0.0 0.0 0.0 -113.73903758380344 9.027163572327584 104.7231930749481 -2.522340060125914e-06 9.56200844218588e-07 -82.1472815572672 179.99999697733412 -59.66435748556259 157.62123354205482 2.6090487621380407e-16 0.0 0.0 39.38483460485425 -69.4275752985587 67.16872215747519 38.44376108846151 44.78194672101646 -101.18098494689575 75.00965024145412 -36.396222198037286 133.8442770354342 7.95138670365879e-15 3.1805546814635168e-15 3.180554681463516e-15 66.37766074799418 -79.2704332278057 24.736256332508542 -40.888023835925964 52.19629458028322 75.22492254825066 -115.27373755067218 -58.047322923921996 -155.85179990272113 0.0 0.0 0.0
-124.5 44.400001525878906 -56.5 -48.9575667004089 -12.507397768144534 89.61910269422997 6.8301772317552985 7.748780732909074 -0.506277447576249 -2.11694342304189e-06 -2.3098936414093268e-06 -2.666634842818664 129.31948310563456 -0.8240368962970984 -123.59579362292762 -7.725960716664522e-07 -2.0437871205170294e-06 53.26034221830402 4.073498705659237e-07 0.6911938546236929 44.04458746486378 0.0 -7.156248033292912e-15 0.0 -112.4362638474127 8.988715342464392 105.91255829805213 -1.3439682301992584e-07 1.117009293250012e-06 -82.46281198742406 -179.99999732073553 -72.58694838475334 156.4110537321295 -1.913302425567897e-15 7.951386703658794e-16 -7.951386703658794e-16 61.78328173891502 -73.77829187784566 102.97770965203952 62.25915242410189 43.60911288543016 -129.70068058928172 86.11725340543906 -26.699228508986554 147.3556731695871 1.9878466759146984e-15 -3.1805546814635176e-15 5.517382872562698e-32 56.52942992780401 -78.39905592332586 21.047955345277636 -29.4430781090363 51.68133044679069 63.501085953394444 -107.07644020537994 -57.35273906781623 -146.98881295369617 4.4139062980501586e-32 3.1805546814635168e-15 -1.5902773407317584e-15
-124.19999694824219 46.20000076293945 -56.19999694824219 -50.00062609398539 -10.963222679120623 88.81696791757494 4.281219926145419 8.383113251143435 -0.556375270846885 1.499735818194736e-06 -3.800398899968957e-07 -1.0906648488830453 133.34840095810281 -0.33597836631549677 -123.65039032178699 1.445823644809278e-06 -3.6257925603433742e-06 55.893791019024164 1.5183828643487595e-06 -2.331078310854412 40.423935447666736 -3.1805546814635164e-15 6.361109362927033e-15 1.7655625192200634e-31 -110.56414829068021 8.599909358494907 105.85299136876169 6.46059152763321e-06 2.896313496436074e-06 -82.88305964726987 -179.9999980092462 -72.94255070283315 160.0298915322142 -1.8387581752210955e-15 0.0 0.0 90.82249180005 -75.17199618599268 141.29807686403234 81.67181089524246 38.011061838770125 -148.94877860242482 90.54099108243182 -23.393088894984608 149.48292114592712 1.1927080055488188e-15 -1.6552148617688095e-32 -1.5902773407317584e-15 49.66894652286465 -75.81042596258057 21.8987626999001 -17.546705289372774 49.010020589846754 49.96784105835662 -105.90823643291861 -60.52445823513623 -143.41312176268838 -8.827812596100317e-32 -3.1805546814635168e-15 -3.1805546814635168e-15
-124.0 47.70000076293945 -56.400001525878906 -51.02751092333823 -8.446760635340189 89.51978708277274 1.3436790848253692 8.050158875694647 -0.3636236791689524 2.2514974286418675e-06 -4.582642198334983e-07 0.8924248024483359 135.90810481535604 -1.5080954725719988 -122.42543369768154 -1.3512562505620252e-06 -6.427724121298359e-06 59.52039789801421 1.905078352557373e-06 -5.5124352388576385 39.6102470675457 -3.1805546814635168e-15 7.951386703658791e-16 3.1805546814635168e-15 -110.57061031986076 10.720029408532872 107.49319303668797 4.302490658401866e-06 5.144233426091988e-06 -83.82741096690619 179.99999698860876 -79.34567241327316 159.091138372592 -4.472655020808071e-16 -1.5902773407317584e-15 -9.93923337957349e-17 117.65170265137685 -73.530596969167 173.33358363208254 95.24412435319827 35.78052469592853 -157.34405853308579 96.83600175564969 -25.79683485091455 148.09996950104798 -1.5902773407317588e-15 3.1805546814635176e-15 -1.5902773407317588e-15 39.037156080562944 -76.0623619830739 15.775762301174355 -12.70994368887658 46.2482737017073 46.79118252563223 -102.53213682282808 -62.81056124537894 -140.75691362247187 6.3611093629270335e-15 -3.1805546814635168e-15 1.7655625192200634e-31
-123.59999084472656 49.0 -56.099998474121094 -51.73044396334277 -8.435376445102387 88.73837319784076 0.822766239337779 9.378902648363884 -0.5111135817971837 -1.3296896300636886e-06 -2.870879500935576e-07 4.0369596765546945 136.501505908738 -1.006555231666713 -121.05139303619704 3.991741120709668e-07 -6.845401163136504e-07 65.76191142831048 -8.380445881775033e-07 -5.752057175433578 46.73618036320552 0.0 -3.9756933518293955e-16 0.0 -111.27305193987259 12.880073033971307 108.68603248812533 -2.3149830725970675e-06 1.947994596167856e-06 -85.61953640092878 179.99999394804422 -84.40241222606318 155.7034499011772 -7.951386703658792e-16 2.758691436281349e-33 -3.975693351829396e-16 131.1979289365451 -66.73351409746685 -167.07387424402037 104.45436802959436 28.78380227321294 -164.6105304328154 99.70615554536604 -33.0220084347855 142.6085063800988 7.951386703658792e-16 0.0 0.0 38.59539127457422 -73.26123736283101 21.100025624348504 -6.638354855949279 42.47459202049213 38.897391801078925 -98.87853634831077 -62.514901912985216 -136.75262154840485 -6.3611093629270335e-15 3.1805546814635168e-15 -1.5902773407317582e-15
-123.30000305175781 50.099998474121094 -56.0 -51.73046279790857 -8.435359935824815 88.7998175233246 1.071877282875845 11.719599067363633 -0.5807651590249795 1.882716337785934e-06 2.44756436451387e-06 3.6672799532585687 137.37483375134016 0.8846813993139538 -122.3416783414635 4.132158945442094e-07 -2.651362096269028e-06 75.55483825145038 -2.9789431355930306e-07 -9.271516805388126 54.973955145911425 6.3611093629270335e-15 6.4605016967227685e-15 -3.586298867165754e-31 -111.55646902603695 13.18734478490657 107.95614401592843 -5.878345344887383e-06 -2.945204223931286e-06 -87.56356712725511 -179.99999138578747 -83.63669302934777 155.1739476650284 -4.9696166897867443e-17 8.620910738379216e-35 -1.9878466759146977e-16 141.42868371517253 -62.728685034515856 -156.1585692781667 110.09398365365574 26.937907940068733 -166.57335012246025 104.02641830556969 -36.66812758916877 143.18516178413037 3.975693351829396e-15 1.1034765745125397e-31 3.1805546814635168e-15 33.79156695898016 -71.39695430223243 20.30015691493898 -2.287762729760613 39.09644023126344 34.16690492012702 -94.78832903588872 -62.39076862712725 -132.8683794030475 -4.4139062980501586e-32 3.1805546814635176e-15 1.5902773407317588e-15
-122.89999389648438 50.599998474121094 -56.099998474121094 -51.73042752664131 -8.923811813456368 88.57239125724601 2.121599852565852 13.71211886752578 -0.7256043465992954 5.921673824897955e-07 3.6090587563989027e-06 2.9122470235026308 134.88399902589768 4.27339425136479 -121.73855136739817 -4.690257063650153e-06 -2.7642855933387273e-06 83.85707037005409 -4.322625556794307e-06 -5.283260337401593 59.21518275132869 6.3611093629270335e-15 0.0 0.0 -111.36522246720381 12.364314852672944 106.67022519696597 -3.640704872586943e-06 -1.7631015382598098e-06 -89.60052137842413 179.99999065559774 -85.82724615558877 154.8363778117131 1.3914926731402886e-15 2.4138550067461805e-33 1.987846675914698e-16 146.8758165146858 -57.999282341013874 -149.70402906924917 113.12727971298987 26.055859351492177 -166.47292041460318 107.34142349708141 -39.95028586923974 145.36230654691633 -1.5902773407317582e-15 2.2069531490250793e-32 -1.5902773407317582e-15 33.26386944690805 -69.82650285263958 21.14333372856111 -0.9422529625277811 36.76748448926 31.036425613701315 -93.10208930535572 -62.89830649901711 -130.97346545752328 6.3611093629270335e-15 -3.1805546814635168e-15 -1.5902773407317582e-15
